<?xml version="1.0" encoding="UTF-8" standalone="no"?>
<!-- Created with Inkscape (http://www.inkscape.org/) -->

<svg
   width="210mm"
   height="150mm"
   viewBox="0 0 210 150"
   version="1.1"
   id="svg5"
   inkscape:version="1.2.2 (b0a8486, 2022-12-01)"
   sodipodi:docname="services.svg"
   xmlns:inkscape="http://www.inkscape.org/namespaces/inkscape"
   xmlns:sodipodi="http://sodipodi.sourceforge.net/DTD/sodipodi-0.dtd"
   xmlns="http://www.w3.org/2000/svg"
   xmlns:svg="http://www.w3.org/2000/svg">
  <sodipodi:namedview
     id="namedview7"
     pagecolor="#ffffff"
     bordercolor="#000000"
     borderopacity="0.25"
     inkscape:showpageshadow="2"
     inkscape:pageopacity="0.0"
     inkscape:pagecheckerboard="0"
     inkscape:deskcolor="#d1d1d1"
     inkscape:document-units="mm"
     showgrid="false"
     inkscape:zoom="1.4879795"
     inkscape:cx="383.40583"
     inkscape:cy="209.00826"
     inkscape:window-width="1792"
     inkscape:window-height="982"
     inkscape:window-x="0"
     inkscape:window-y="25"
     inkscape:window-maximized="1"
     inkscape:current-layer="layer4"
     inkscape:connector-spacing="30" />
  <defs
     id="defs2">
    <rect
       x="116.77517"
       y="90.825127"
       width="127.31737"
       height="21.084406"
       id="rect489" />
  </defs>
  <g
     inkscape:groupmode="layer"
     id="layer4"
     inkscape:label="Services"
     style="display:inline">
    <g
       id="g7080">
      <g
         id="g2758"
         transform="translate(6.7569257)">
        <rect
           style="display:inline;fill:#d7f4ee;stroke:#000000;stroke-width:0.209923"
           id="rect163-8-1-8"
           width="164.61038"
           height="31.907654"
           x="19.079472"
           y="15.729325"
           rx="6.0375476"
           ry="5.975615" />
        <rect
           style="display:inline;fill:#aaeeff;stroke:#000000;stroke-width:0.211001"
           id="rect269-1-4-6"
           width="131.01697"
           height="9.9244137"
           x="35.876137"
           y="20.319147"
           rx="6.0374098"
           ry="6.0374098" />
        <rect
           style="display:inline;fill:#ffffff;fill-opacity:1;stroke:#000000;stroke-width:0.20745"
           id="rect1253-1-8-5"
           width="124.50809"
           height="10.525382"
           x="39.130611"
           y="35.18523" />
        <text
           xml:space="preserve"
           style="font-style:normal;font-variant:normal;font-weight:300;font-stretch:normal;font-size:2.75899px;font-family:'Adobe Clean';-inkscape-font-specification:'Adobe Clean, Light';font-variant-ligatures:normal;font-variant-caps:normal;font-variant-numeric:normal;font-variant-east-asian:normal;display:inline;fill:#000000;stroke:#000000;stroke-width:0.101;stroke-dasharray:none"
           x="43.882099"
           y="40.968575"
           id="text3723-0"
           transform="scale(1.0002645,0.99973556)"><tspan
             sodipodi:role="line"
             style="font-style:normal;font-variant:normal;font-weight:300;font-stretch:normal;font-size:2.75899px;font-family:'Adobe Clean';-inkscape-font-specification:'Adobe Clean, Light';font-variant-ligatures:normal;font-variant-caps:normal;font-variant-numeric:normal;font-variant-east-asian:normal;stroke-width:0.101;stroke-dasharray:none"
             x="43.882099"
             y="40.968575"
             id="tspan3727-0">Provides endpoints for reading from and writing to the message queue. .</tspan></text>
        <g
           aria-label="Communication Hub"
           id="text2119-9"
           style="font-weight:300;font-size:5.64444px;font-family:'Adobe Clean';-inkscape-font-specification:'Adobe Clean, Light';display:inline;stroke:#000000;stroke-width:0.264583"
           transform="matrix(0.71001765,0,0,0.71001765,42.983526,-53.315023)">
          <path
             d="m 61.964163,112.41858 c 0,-0.0226 -0.01693,-0.0226 -0.03387,-0.0169 -0.2032,0.0847 -0.423333,0.1016 -0.7112,0.1016 -0.592666,0 -1.631243,-0.32737 -1.631243,-1.70462 0,-1.00471 0.688622,-1.65382 1.653821,-1.65382 0.338666,0 0.581377,0.0564 0.722488,0.12982 0.01129,0.0113 0.02822,0.0113 0.02822,-0.0169 v -0.22013 c 0,-0.0226 -0.0056,-0.0339 -0.02258,-0.0395 -0.107245,-0.0565 -0.327378,-0.1016 -0.7112,-0.1016 -1.168399,0 -1.947332,0.79022 -1.947332,1.91346 0,1.46756 1.038577,1.95298 1.885243,1.95298 0.316089,0 0.5588,-0.0282 0.739422,-0.10725 0.01693,-0.006 0.02822,-0.0226 0.02822,-0.0452 z"
             id="path2340" />
          <path
             d="m 63.58411,109.95196 c -0.733777,0 -1.236132,0.60395 -1.236132,1.40546 0,0.66605 0.372533,1.40547 1.241777,1.40547 0.722488,0 1.219199,-0.57009 1.219199,-1.40547 0,-0.84666 -0.496711,-1.40546 -1.224844,-1.40546 z m -0.01693,0.24271 c 0.694266,0 0.970844,0.58702 0.970844,1.1684 0,0.8128 -0.491067,1.15146 -0.931333,1.15146 -0.637822,0 -0.987777,-0.54751 -0.987777,-1.1684 0,-0.67733 0.383822,-1.15146 0.948266,-1.15146 z"
             id="path2342" />
          <path
             d="m 65.700774,112.70644 c 0.01693,0 0.02258,-0.006 0.02258,-0.0282 v -2.06586 c 0.248356,-0.28223 0.491067,-0.41205 0.818444,-0.41205 0.428978,0 0.654755,0.3048 0.654755,0.78458 v 1.68769 c 0,0.0282 0.0056,0.0339 0.03387,0.0339 h 0.208844 c 0.02258,0 0.02822,-0.006 0.02822,-0.0339 v -1.67076 c 0,-0.14675 -0.01693,-0.31044 -0.03387,-0.38382 0.220133,-0.27093 0.485422,-0.42333 0.835377,-0.42333 0.451555,0 0.666044,0.36689 0.666044,0.80715 v 1.67076 c 0,0.0282 0.0056,0.0339 0.03387,0.0339 h 0.203199 c 0.02258,0 0.03387,-0.006 0.03387,-0.0282 v -1.68204 c 0,-0.8636 -0.508,-1.04422 -0.886177,-1.04422 -0.434622,0 -0.728133,0.19755 -0.965199,0.44026 -0.158045,-0.31044 -0.417689,-0.44026 -0.756355,-0.44026 -0.333022,0 -0.620889,0.12417 -0.880533,0.38946 0,-0.0903 -0.01129,-0.24835 -0.02822,-0.31044 -0.0056,-0.0226 -0.01129,-0.0282 -0.03387,-0.0282 h -0.197555 c -0.02258,0 -0.02258,0.0113 -0.02258,0.0282 0.01129,0.1016 0.02258,0.28222 0.02258,0.54751 v 2.09409 c 0,0.0226 0,0.0339 0.02258,0.0339 z"
             id="path2344" />
          <path
             d="m 70.323561,112.70644 c 0.01693,0 0.02258,-0.006 0.02258,-0.0282 v -2.06586 c 0.248356,-0.28223 0.491067,-0.41205 0.818444,-0.41205 0.428978,0 0.654755,0.3048 0.654755,0.78458 v 1.68769 c 0,0.0282 0.0056,0.0339 0.03387,0.0339 h 0.208844 c 0.02258,0 0.02822,-0.006 0.02822,-0.0339 v -1.67076 c 0,-0.14675 -0.01693,-0.31044 -0.03387,-0.38382 0.220133,-0.27093 0.485422,-0.42333 0.835377,-0.42333 0.451555,0 0.666044,0.36689 0.666044,0.80715 v 1.67076 c 0,0.0282 0.0056,0.0339 0.03387,0.0339 h 0.203199 c 0.02258,0 0.03387,-0.006 0.03387,-0.0282 v -1.68204 c 0,-0.8636 -0.508,-1.04422 -0.886177,-1.04422 -0.434622,0 -0.728133,0.19755 -0.965199,0.44026 -0.158045,-0.31044 -0.417689,-0.44026 -0.756355,-0.44026 -0.333022,0 -0.620889,0.12417 -0.880533,0.38946 0,-0.0903 -0.01129,-0.24835 -0.02822,-0.31044 -0.0056,-0.0226 -0.01129,-0.0282 -0.03387,-0.0282 h -0.19756 c -0.02258,0 -0.02258,0.0113 -0.02258,0.0282 0.01129,0.1016 0.02258,0.28222 0.02258,0.54751 v 2.09409 c 0,0.0226 0,0.0339 0.02258,0.0339 z"
             id="path2346" />
          <path
             d="m 76.718701,110.03662 c 0,-0.0226 0,-0.0339 -0.02822,-0.0339 h -0.208844 c -0.02258,0 -0.03387,0.0113 -0.03387,0.0339 v 2.10538 c -0.191911,0.24271 -0.462844,0.37253 -0.784577,0.37253 -0.451555,0 -0.699911,-0.31044 -0.699911,-0.82973 v -1.64818 c 0,-0.0226 -0.0056,-0.0339 -0.02822,-0.0339 H 74.72057 c -0.02258,0 -0.02822,0.006 -0.02822,0.0339 v 1.68769 c 0,0.84102 0.485422,1.03858 0.920044,1.03858 0.3048,0 0.6096,-0.1016 0.846666,-0.3556 0,0.0903 0.01693,0.2032 0.02822,0.27658 0.01129,0.0169 0.01693,0.0226 0.03387,0.0226 h 0.2032 c 0.02258,0 0.02822,-0.006 0.02258,-0.0282 -0.01693,-0.12418 -0.02822,-0.24271 -0.02822,-0.55315 z"
             id="path2348" />
          <path
             d="m 77.593584,112.67258 c 0,0.0226 0.0056,0.0339 0.02258,0.0339 h 0.214489 c 0.02258,0 0.02822,-0.006 0.02822,-0.0339 v -2.02071 c 0.214489,-0.28787 0.502355,-0.45156 0.85231,-0.45156 0.462844,0 0.677333,0.3556 0.677333,0.83538 v 1.63689 c 0,0.0226 0.0056,0.0339 0.02822,0.0339 h 0.208845 c 0.02258,0 0.03387,-0.006 0.03387,-0.0339 v -1.65947 c 0,-0.89182 -0.524933,-1.06115 -0.897466,-1.06115 -0.344311,0 -0.654755,0.14111 -0.908755,0.41769 -0.0056,-0.1524 -0.01693,-0.28223 -0.02822,-0.33867 -0.0056,-0.0226 -0.01129,-0.0282 -0.03387,-0.0282 h -0.191911 c -0.02258,0 -0.02822,0.0113 -0.02822,0.0282 0.0056,0.0734 0.02258,0.4064 0.02258,0.59831 z"
             id="path2350" />
          <path
             d="m 80.528687,112.67258 c 0,0.0282 0.01129,0.0339 0.03951,0.0339 h 0.2032 c 0.02258,0 0.02822,-0.006 0.02822,-0.0282 v -2.64724 c 0,-0.0226 -0.01129,-0.0282 -0.02822,-0.0282 h -0.214489 c -0.01693,0 -0.02822,0.0113 -0.02822,0.0339 z m 0.135466,-3.36973 c 0.112889,0 0.186267,-0.0847 0.186267,-0.18627 0,-0.11289 -0.06773,-0.19756 -0.186267,-0.19756 -0.107244,0 -0.180622,0.0847 -0.180622,0.19756 0,0.10724 0.06209,0.18627 0.180622,0.18627 z"
             id="path2352" />
          <path
             d="m 83.412989,112.44116 c 0,-0.0169 -0.0056,-0.0226 -0.02822,-0.0169 -0.163689,0.0621 -0.344311,0.0847 -0.5588,0.0847 -0.615244,0 -1.100666,-0.41205 -1.100666,-1.15711 0,-0.68298 0.4572,-1.15711 1.106311,-1.15711 0.248355,0 0.389466,0.0282 0.553155,0.096 0.01693,0.006 0.02822,0.006 0.02822,-0.0113 l 0.0056,-0.20884 c 0,-0.0226 -0.0056,-0.0339 -0.02822,-0.0452 -0.08467,-0.0395 -0.248355,-0.0734 -0.536222,-0.0734 -0.841021,0 -1.405465,0.6096 -1.405465,1.41111 0,0.72249 0.417688,1.39982 1.343377,1.39982 0.197555,0 0.412044,-0.0169 0.603955,-0.0903 0.01693,-0.006 0.01693,-0.0169 0.01693,-0.0395 z"
             id="path2354" />
          <path
             d="m 85.512708,112.396 c -0.197555,0.0903 -0.400755,0.12982 -0.615244,0.12982 -0.592666,0 -0.784577,-0.31609 -0.784577,-0.6096 0,-0.38946 0.327378,-0.6096 0.976488,-0.6096 0.2032,0 0.3556,0.0169 0.423333,0.0282 z m 0.265289,-1.43933 c 0,-0.55316 -0.259644,-1.00471 -0.920044,-1.00471 -0.299155,0 -0.547511,0.0621 -0.75071,0.16369 -0.01129,0.0113 -0.01693,0.0169 -0.01693,0.0339 v 0.2032 c 0,0.0226 0.01693,0.0282 0.02822,0.0169 0.191911,-0.10725 0.434622,-0.16934 0.699911,-0.16934 0.603955,0 0.694266,0.47978 0.694266,0.69991 v 0.19756 c -0.06209,-0.006 -0.174977,-0.0169 -0.428977,-0.0169 -0.6604,0 -1.236133,0.23142 -1.236133,0.83537 0,0.55316 0.4064,0.84667 0.982133,0.84667 0.282222,0 0.598311,-0.0452 0.942621,-0.23142 0.01129,-0.006 0.01129,-0.0113 0.01129,-0.0226 -0.0056,-0.0621 -0.0056,-0.12418 -0.0056,-0.19191 z"
             id="path2356" />
          <path
             d="m 87.635011,112.46938 c 0,-0.0226 -0.01129,-0.0226 -0.02822,-0.0169 -0.118533,0.0508 -0.220133,0.0621 -0.310444,0.0621 -0.265289,0 -0.378178,-0.16933 -0.378178,-0.43462 v -1.8288 h 0.643467 c 0.02258,-0.006 0.03387,-0.0113 0.03387,-0.0339 v -0.18063 c 0,-0.0226 -0.01129,-0.0339 -0.03387,-0.0339 h -0.637822 c 0,-0.27658 0.01129,-0.60396 0.03951,-0.8128 0,-0.0113 -0.01693,-0.0169 -0.03387,-0.0113 l -0.208844,0.0395 c -0.01129,0.006 -0.01693,0.0169 -0.02258,0.0339 -0.02258,0.11289 -0.04516,0.53057 -0.04516,0.75071 h -0.41768 c -0.02822,0 -0.03387,0.0113 -0.03387,0.0339 v 0.17498 c 0,0.0226 0.0056,0.0339 0.03387,0.0395 h 0.417689 v 1.82316 c 0,0.51928 0.220133,0.68862 0.581377,0.68862 0.118533,0 0.265289,-0.0226 0.378178,-0.0847 0.02258,-0.0113 0.02258,-0.0226 0.02258,-0.0395 z"
             id="path2358" />
          <path
             d="m 88.171227,112.67258 c 0,0.0282 0.01129,0.0339 0.03951,0.0339 h 0.2032 c 0.02258,0 0.02822,-0.006 0.02822,-0.0282 v -2.64724 c 0,-0.0226 -0.01129,-0.0282 -0.02822,-0.0282 h -0.214489 c -0.01693,0 -0.02822,0.0113 -0.02822,0.0339 z m 0.135466,-3.36973 c 0.112889,0 0.186267,-0.0847 0.186267,-0.18627 0,-0.11289 -0.06773,-0.19756 -0.186267,-0.19756 -0.107244,0 -0.180622,0.0847 -0.180622,0.19756 0,0.10724 0.06209,0.18627 0.180622,0.18627 z"
             id="path2360" />
          <path
             d="m 90.327396,109.95196 c -0.733777,0 -1.236132,0.60395 -1.236132,1.40546 0,0.66605 0.372533,1.40547 1.241777,1.40547 0.722488,0 1.219199,-0.57009 1.219199,-1.40547 0,-0.84666 -0.496711,-1.40546 -1.224844,-1.40546 z m -0.01693,0.24271 c 0.694266,0 0.970844,0.58702 0.970844,1.1684 0,0.8128 -0.491067,1.15146 -0.931333,1.15146 -0.637822,0 -0.987777,-0.54751 -0.987777,-1.1684 0,-0.67733 0.383822,-1.15146 0.948266,-1.15146 z"
             id="path2362" />
          <path
             d="m 92.201349,112.67258 c 0,0.0226 0.0056,0.0339 0.02258,0.0339 h 0.214489 c 0.02258,0 0.02822,-0.006 0.02822,-0.0339 v -2.02071 c 0.214489,-0.28787 0.502355,-0.45156 0.85231,-0.45156 0.462845,0 0.677333,0.3556 0.677333,0.83538 v 1.63689 c 0,0.0226 0.0056,0.0339 0.02822,0.0339 h 0.208844 c 0.02258,0 0.03387,-0.006 0.03387,-0.0339 v -1.65947 c 0,-0.89182 -0.524932,-1.06115 -0.897466,-1.06115 -0.34431,0 -0.654755,0.14111 -0.908754,0.41769 -0.0056,-0.1524 -0.01693,-0.28223 -0.02822,-0.33867 -0.0056,-0.0226 -0.01129,-0.0282 -0.03387,-0.0282 h -0.191911 c -0.02258,0 -0.02822,0.0113 -0.02822,0.0282 0.0056,0.0734 0.02258,0.4064 0.02258,0.59831 z"
             id="path2364" />
          <path
             d="m 99.177867,112.70644 c 0.02258,0 0.02822,-0.006 0.02822,-0.0282 v -3.69146 c 0,-0.0226 -0.0056,-0.0339 -0.02822,-0.0339 h -0.214489 c -0.02258,0 -0.02822,0.0113 -0.02822,0.0339 v 1.61995 H 96.77898 v -1.6256 c 0,-0.0226 -0.01129,-0.0282 -0.02822,-0.0282 h -0.214489 c -0.02258,0 -0.02822,0.006 -0.02822,0.0282 v 3.69147 c 0,0.0226 0.0056,0.0339 0.02822,0.0339 h 0.214489 c 0.01693,0 0.02822,-0.0113 0.02822,-0.0339 v -1.81187 h 2.156176 v 1.81751 c 0,0.0226 0.0056,0.0282 0.02822,0.0282 z"
             id="path2366" />
          <path
             d="m 102.10733,110.03662 c 0,-0.0226 0,-0.0339 -0.0282,-0.0339 h -0.20884 c -0.0226,0 -0.0339,0.0113 -0.0339,0.0339 v 2.10538 c -0.19191,0.24271 -0.46284,0.37253 -0.78457,0.37253 -0.45156,0 -0.69992,-0.31044 -0.69992,-0.82973 v -1.64818 c 0,-0.0226 -0.006,-0.0339 -0.0282,-0.0339 h -0.21449 c -0.0226,0 -0.0282,0.006 -0.0282,0.0339 v 1.68769 c 0,0.84102 0.48542,1.03858 0.92005,1.03858 0.3048,0 0.60959,-0.1016 0.84666,-0.3556 0,0.0903 0.0169,0.2032 0.0282,0.27658 0.0113,0.0169 0.0169,0.0226 0.0339,0.0226 h 0.2032 c 0.0226,0 0.0282,-0.006 0.0226,-0.0282 -0.0169,-0.12418 -0.0282,-0.24271 -0.0282,-0.55315 z"
             id="path2368" />
          <path
             d="m 103.01607,108.63116 c -0.0226,0 -0.0339,0.006 -0.0339,0.0226 v 3.95675 c 0,0.0226 0.0113,0.0395 0.0282,0.0452 0.22013,0.0734 0.42898,0.10725 0.69991,0.10725 0.75635,0 1.48449,-0.51929 1.48449,-1.50707 0,-0.76764 -0.49671,-1.30386 -1.24742,-1.30386 -0.26529,0 -0.49107,0.0508 -0.69427,0.14111 v -1.43933 c 0,-0.0226 -0.0113,-0.0226 -0.0282,-0.0226 z m 1.90782,2.6416 c 0,0.82408 -0.57573,1.24742 -1.19662,1.24742 -0.2032,0 -0.33866,-0.0226 -0.47413,-0.0621 v -2.12796 c 0.18062,-0.0847 0.37818,-0.13546 0.66604,-0.13546 0.63218,0 1.00471,0.4572 1.00471,1.07809 z"
             id="path2370" />
        </g>
      </g>
    </g>
    <rect
       style="display:inline;fill:#d7f4ee;stroke:#000000;stroke-width:0.209923"
       id="rect163-8-1-8-9"
       width="37.167469"
       height="39.898735"
       x="19.079472"
       y="64.244423"
       rx="6.0375476"
       ry="5.9756145" />
    <rect
       style="display:inline;fill:#aaeeff;stroke:#000000;stroke-width:0.211002"
       id="rect269-1-4-6-5"
       width="29.582392"
       height="7.7595992"
       x="22.872"
       y="67.833061"
       rx="6.0374098"
       ry="6.0374098" />
    <g
       aria-label="Reader Service"
       id="text2119-9-9-4"
       style="font-weight:300;font-size:5.64444px;font-family:'Adobe Clean';-inkscape-font-specification:'Adobe Clean, Light';display:inline;stroke:#000000;stroke-width:0.490059"
       transform="matrix(0.5465931,0,0,0.53328962,-29.11232,32.383005)">
      <path
         d="m 106.34117,75.763046 c 0.0169,0 0.0226,-0.0056 0.0226,-0.02822 V 74.11487 h 0.79587 c 0.0564,0 0.0847,0.02258 0.12417,0.08467 0.32174,0.468489 0.8636,1.269999 1.04987,1.540933 0.0113,0.01693 0.0226,0.02258 0.0452,0.02258 h 0.254 c 0.0226,0 0.0282,-0.01693 0.0113,-0.03387 -0.12417,-0.197556 -0.95955,-1.41111 -1.15146,-1.687688 0.42333,-0.118533 0.82409,-0.428977 0.82409,-0.999066 0,-0.716844 -0.57009,-1.044221 -1.33209,-1.044221 -0.32174,0 -0.6604,0.01129 -0.85796,0.01693 -0.0226,0 -0.0282,0.01693 -0.0282,0.03951 v 3.680175 c 0,0.02822 0.0113,0.02822 0.0282,0.02822 z m 0.0226,-1.890887 v -1.61431 c 0.12982,-0.0056 0.37253,-0.01693 0.60395,-0.01693 0.72814,0 1.07809,0.327377 1.07809,0.812799 0,0.468489 -0.36124,0.818444 -0.9652,0.818444 z"
         id="path2517"
         style="stroke-width:0.490059" />
      <path
         d="m 110.46726,74.36887 c 0.22013,0 0.49671,-0.0056 0.58137,-0.01693 0.0226,0 0.0395,-0.01693 0.0395,-0.03387 0.0113,-0.04516 0.0169,-0.112889 0.0169,-0.237067 0,-0.428977 -0.26529,-1.072444 -1.04422,-1.072444 -0.71685,0 -1.17405,0.626533 -1.17405,1.422399 0,0.682978 0.34431,1.388533 1.26436,1.388533 0.33302,0 0.58137,-0.07338 0.75071,-0.169334 0.0169,-0.0056 0.0226,-0.01693 0.0226,-0.03951 V 75.42438 c 0,-0.02258 -0.0113,-0.02822 -0.0282,-0.01693 -0.22013,0.118533 -0.46284,0.158044 -0.70555,0.158044 -0.69991,0 -1.06116,-0.513644 -1.03293,-1.196621 z m -1.29823,-0.220134 c 0.0621,-0.468488 0.34432,-0.90311 0.88618,-0.90311 0.63782,0 0.78458,0.570088 0.78458,0.818444 0,0.01693 0,0.05644 -0.006,0.07338 -0.0169,0.0056 -0.0734,0.01129 -0.41768,0.01129 z"
         id="path2519"
         style="stroke-width:0.490059" />
      <path
         d="m 113.17658,75.452602 c -0.19756,0.09031 -0.40076,0.129822 -0.61525,0.129822 -0.59266,0 -0.78457,-0.316088 -0.78457,-0.609599 0,-0.389467 0.32738,-0.6096 0.97649,-0.6096 0.2032,0 0.3556,0.01693 0.42333,0.02822 z m 0.26529,-1.439332 c 0,-0.553155 -0.25965,-1.004711 -0.92005,-1.004711 -0.29915,0 -0.54751,0.06209 -0.75071,0.163689 -0.0113,0.01129 -0.0169,0.01693 -0.0169,0.03387 v 0.2032 c 0,0.02258 0.0169,0.02822 0.0282,0.01693 0.19191,-0.107244 0.43462,-0.169333 0.69991,-0.169333 0.60396,0 0.69427,0.479777 0.69427,0.69991 v 0.197556 c -0.0621,-0.0056 -0.17498,-0.01693 -0.42898,-0.01693 -0.6604,0 -1.23613,0.231423 -1.23613,0.835378 0,0.553155 0.4064,0.846666 0.98213,0.846666 0.28222,0 0.59831,-0.04516 0.94262,-0.231422 0.0113,-0.0056 0.0113,-0.01129 0.0113,-0.02258 -0.006,-0.06209 -0.006,-0.124178 -0.006,-0.191911 z"
         id="path2521"
         style="stroke-width:0.490059" />
      <path
         d="m 115.40612,75.819491 c 0.29351,0 0.57009,-0.05644 0.84667,-0.197556 0.0169,-0.01129 0.0226,-0.01693 0.0226,-0.03387 -0.006,-0.07902 -0.006,-0.129823 -0.006,-0.174978 v -3.697108 c 0,-0.02258 0,-0.02822 -0.0282,-0.02822 h -0.21449 c -0.0226,0 -0.0282,0.0056 -0.0282,0.02822 v 1.337732 c -0.12418,-0.02822 -0.24271,-0.04516 -0.46285,-0.04516 -0.84666,0 -1.47884,0.587022 -1.47884,1.422399 0,0.9144 0.59267,1.388533 1.34902,1.388533 z m 0.59267,-0.344311 c -0.15805,0.07338 -0.38947,0.09596 -0.57009,0.09596 -0.54187,0 -1.09502,-0.310444 -1.09502,-1.15711 0,-0.620888 0.41204,-1.162755 1.19097,-1.162755 0.19192,0 0.36125,0.02258 0.47414,0.07902 z"
         id="path2523"
         style="stroke-width:0.490059" />
      <path
         d="m 118.49362,74.36887 c 0.22014,0 0.49671,-0.0056 0.58138,-0.01693 0.0226,0 0.0395,-0.01693 0.0395,-0.03387 0.0113,-0.04516 0.0169,-0.112889 0.0169,-0.237067 0,-0.428977 -0.26528,-1.072444 -1.04422,-1.072444 -0.71684,0 -1.17404,0.626533 -1.17404,1.422399 0,0.682978 0.34431,1.388533 1.26435,1.388533 0.33303,0 0.58138,-0.07338 0.75071,-0.169334 0.0169,-0.0056 0.0226,-0.01693 0.0226,-0.03951 V 75.42438 c 0,-0.02258 -0.0113,-0.02822 -0.0282,-0.01693 -0.22013,0.118533 -0.46284,0.158044 -0.70555,0.158044 -0.69992,0 -1.06116,-0.513644 -1.03294,-1.196621 z m -1.29822,-0.220134 c 0.0621,-0.468488 0.34431,-0.90311 0.88618,-0.90311 0.63782,0 0.78458,0.570088 0.78458,0.818444 0,0.01693 0,0.05644 -0.006,0.07338 -0.0169,0.0056 -0.0734,0.01129 -0.41769,0.01129 z"
         id="path2525"
         style="stroke-width:0.490059" />
      <path
         d="m 119.75797,73.059359 c -0.0226,0 -0.0282,0.0056 -0.0226,0.03387 0.0169,0.129822 0.0282,0.4572 0.0282,0.688622 v 1.952976 c 0,0.01693 0.006,0.02822 0.0282,0.02822 h 0.22014 c 0.0169,0 0.0226,-0.0056 0.0226,-0.02822 l 0.006,-1.924754 c 0.15804,-0.282222 0.53058,-0.519289 0.90875,-0.519289 0.0226,0 0.0282,-0.0056 0.0282,-0.02822 v -0.231422 c 0,-0.02258 -0.006,-0.02258 -0.0282,-0.02258 -0.34431,0 -0.71684,0.220134 -0.92004,0.513645 -0.006,-0.112889 -0.0169,-0.366889 -0.0339,-0.434622 -0.0113,-0.01693 -0.0113,-0.02822 -0.0395,-0.02822 z"
         id="path2527"
         style="stroke-width:0.490059" />
      <path
         d="m 123.44377,75.819491 c 0.79022,0 1.19662,-0.451556 1.19662,-1.010355 0,-0.400755 -0.20884,-0.739422 -0.86924,-1.032933 l -0.254,-0.107244 c -0.5588,-0.242711 -0.72249,-0.485422 -0.72249,-0.795866 0,-0.265289 0.15805,-0.671688 0.84667,-0.671688 0.31044,0 0.62089,0.06209 0.80715,0.19191 0.0169,0.01129 0.0339,0 0.0339,-0.02258 v -0.214489 c 0,-0.02822 -0.006,-0.03387 -0.0226,-0.04516 -0.1524,-0.09596 -0.44591,-0.158044 -0.80715,-0.158044 -0.67169,0 -1.12325,0.372533 -1.12325,0.948266 0,0.338667 0.14676,0.694266 0.84102,0.999066 l 0.23143,0.09596 c 0.59831,0.270934 0.762,0.508 0.762,0.835378 0,0.428977 -0.29351,0.733777 -0.9144,0.733777 -0.28787,0 -0.63782,-0.06773 -0.92569,-0.276578 -0.0169,-0.01129 -0.0339,0 -0.0339,0.01693 v 0.237066 c 0,0.02258 0.006,0.03951 0.0226,0.0508 0.22013,0.141111 0.5588,0.225778 0.93133,0.225778 z"
         id="path2529"
         style="stroke-width:0.490059" />
      <path
         d="m 126.73447,74.36887 c 0.22013,0 0.49671,-0.0056 0.58138,-0.01693 0.0226,0 0.0395,-0.01693 0.0395,-0.03387 0.0113,-0.04516 0.0169,-0.112889 0.0169,-0.237067 0,-0.428977 -0.26529,-1.072444 -1.04422,-1.072444 -0.71685,0 -1.17404,0.626533 -1.17404,1.422399 0,0.682978 0.34431,1.388533 1.26435,1.388533 0.33302,0 0.58138,-0.07338 0.75071,-0.169334 0.0169,-0.0056 0.0226,-0.01693 0.0226,-0.03951 V 75.42438 c 0,-0.02258 -0.0113,-0.02822 -0.0282,-0.01693 -0.22014,0.118533 -0.46285,0.158044 -0.70556,0.158044 -0.69991,0 -1.06115,-0.513644 -1.03293,-1.196621 z m -1.29822,-0.220134 c 0.0621,-0.468488 0.34431,-0.90311 0.88617,-0.90311 0.63783,0 0.78458,0.570088 0.78458,0.818444 0,0.01693 0,0.05644 -0.006,0.07338 -0.0169,0.0056 -0.0734,0.01129 -0.41769,0.01129 z"
         id="path2531"
         style="stroke-width:0.490059" />
      <path
         d="m 127.99881,73.059359 c -0.0226,0 -0.0282,0.0056 -0.0226,0.03387 0.0169,0.129822 0.0282,0.4572 0.0282,0.688622 v 1.952976 c 0,0.01693 0.006,0.02822 0.0282,0.02822 h 0.22013 c 0.0169,0 0.0226,-0.0056 0.0226,-0.02822 l 0.006,-1.924754 c 0.15804,-0.282222 0.53057,-0.519289 0.90875,-0.519289 0.0226,0 0.0282,-0.0056 0.0282,-0.02822 v -0.231422 c 0,-0.02258 -0.006,-0.02258 -0.0282,-0.02258 -0.34431,0 -0.71684,0.220134 -0.92004,0.513645 -0.006,-0.112889 -0.0169,-0.366889 -0.0339,-0.434622 -0.0113,-0.01693 -0.0113,-0.02822 -0.0395,-0.02822 z"
         id="path2533"
         style="stroke-width:0.490059" />
      <path
         d="m 130.81537,75.763046 c 0.0226,0 0.0282,-0.0056 0.0395,-0.02822 0.0621,-0.158044 0.88618,-2.342443 0.99907,-2.641598 0.006,-0.02258 -0.006,-0.03387 -0.0226,-0.03387 h -0.21449 c -0.0169,0 -0.0226,0.0056 -0.0339,0.02822 -0.56445,1.557865 -0.8128,2.218265 -0.89183,2.438398 h -0.006 c -0.0734,-0.220133 -0.32738,-0.903111 -0.86924,-2.438398 -0.006,-0.02258 -0.0169,-0.02822 -0.0339,-0.02822 h -0.23142 c -0.0282,0 -0.0282,0.01693 -0.0226,0.03387 0.079,0.208844 0.9144,2.489198 0.97084,2.647243 0.006,0.01129 0.0169,0.02258 0.0395,0.02258 z"
         id="path2535"
         style="stroke-width:0.490059" />
      <path
         d="m 132.38452,75.72918 c 0,0.02822 0.0113,0.03387 0.0395,0.03387 h 0.2032 c 0.0226,0 0.0282,-0.0056 0.0282,-0.02822 v -2.647242 c 0,-0.02258 -0.0113,-0.02822 -0.0282,-0.02822 h -0.21449 c -0.0169,0 -0.0282,0.01129 -0.0282,0.03387 z m 0.13546,-3.369731 c 0.11289,0 0.18627,-0.08467 0.18627,-0.186267 0,-0.112888 -0.0677,-0.197555 -0.18627,-0.197555 -0.10724,0 -0.18062,0.08467 -0.18062,0.197555 0,0.107245 0.0621,0.186267 0.18062,0.186267 z"
         id="path2537"
         style="stroke-width:0.490059" />
      <path
         d="m 135.26882,75.497758 c 0,-0.01693 -0.006,-0.02258 -0.0282,-0.01693 -0.16369,0.06209 -0.34431,0.08467 -0.5588,0.08467 -0.61525,0 -1.10067,-0.412044 -1.10067,-1.15711 0,-0.682978 0.4572,-1.157111 1.10631,-1.157111 0.24836,0 0.38947,0.02822 0.55316,0.09596 0.0169,0.0056 0.0282,0.0056 0.0282,-0.01129 l 0.006,-0.208844 c 0,-0.02258 -0.006,-0.03387 -0.0282,-0.04516 -0.0847,-0.03951 -0.24835,-0.07338 -0.53622,-0.07338 -0.84102,0 -1.40546,0.6096 -1.40546,1.411111 0,0.722488 0.41768,1.399821 1.34337,1.399821 0.19756,0 0.41205,-0.01693 0.60396,-0.09031 0.0169,-0.0056 0.0169,-0.01693 0.0169,-0.03951 z"
         id="path2539"
         style="stroke-width:0.490059" />
      <path
         d="m 137.21049,74.36887 c 0.22013,0 0.49671,-0.0056 0.58138,-0.01693 0.0226,0 0.0395,-0.01693 0.0395,-0.03387 0.0113,-0.04516 0.0169,-0.112889 0.0169,-0.237067 0,-0.428977 -0.26529,-1.072444 -1.04422,-1.072444 -0.71684,0 -1.17404,0.626533 -1.17404,1.422399 0,0.682978 0.34431,1.388533 1.26435,1.388533 0.33302,0 0.58138,-0.07338 0.75071,-0.169334 0.0169,-0.0056 0.0226,-0.01693 0.0226,-0.03951 V 75.42438 c 0,-0.02258 -0.0113,-0.02822 -0.0282,-0.01693 -0.22014,0.118533 -0.46285,0.158044 -0.70556,0.158044 -0.69991,0 -1.06115,-0.513644 -1.03293,-1.196621 z m -1.29822,-0.220134 c 0.0621,-0.468488 0.34431,-0.90311 0.88618,-0.90311 0.63782,0 0.78457,0.570088 0.78457,0.818444 0,0.01693 0,0.05644 -0.006,0.07338 -0.0169,0.0056 -0.0734,0.01129 -0.41769,0.01129 z"
         id="path2541"
         style="stroke-width:0.490059" />
    </g>
    <rect
       style="display:inline;fill:#ffffff;fill-opacity:1;stroke:#000000;stroke-width:0.20745"
       id="rect1253-1-8-5-9"
       width="28.112751"
       height="23.792501"
       x="23.606829"
       y="77.941849" />
    <g
       id="g2736"
       transform="matrix(0.78228353,0,0,0.78186979,-28.223314,14.145408)"
       style="stroke-width:1.27865">
      <rect
         style="display:inline;fill:#d7f4ee;stroke:#000000;stroke-width:0.268417"
         id="rect163-8-1-8-9-4"
         width="47.511505"
         height="51.0299"
         x="107.97907"
         y="64.075905"
         rx="7.7178507"
         ry="7.6427236" />
      <rect
         style="display:inline;fill:#aaeeff;stroke:#000000;stroke-width:0.269797"
         id="rect269-1-4-6-5-0"
         width="37.815434"
         height="9.9244137"
         x="112.8271"
         y="68.665726"
         rx="7.7176747"
         ry="7.7217584" />
      <rect
         style="display:inline;fill:#ffffff;fill-opacity:1;stroke:#000000;stroke-width:0.265255"
         id="rect1253-1-8-5-9-1"
         width="35.936779"
         height="30.43026"
         x="113.76643"
         y="81.594711" />
      <g
         aria-label="Writer Service"
         id="text2119-9-9-9"
         style="font-weight:300;font-size:5.64444px;font-family:'Adobe Clean';-inkscape-font-specification:'Adobe Clean, Light';display:inline;stroke:#000000;stroke-width:0.481"
         transform="matrix(0.71190833,0,0,0.69487833,64.125214,-10.560136)">
        <path
           d="m 82.802416,119.31997 c -0.0056,-0.0226 -0.01129,-0.0282 -0.02822,-0.0282 H 82.48633 c -0.01693,0 -0.02822,0.006 -0.03951,0.0226 -0.666044,2.47791 -0.891822,3.2004 -0.95391,3.46568 h -0.0056 c -0.04516,-0.23142 -0.231422,-0.90875 -0.891821,-3.46568 -0.01129,-0.0169 -0.01693,-0.0226 -0.03951,-0.0226 h -0.225777 c -0.02258,0 -0.02822,0.0113 -0.02258,0.0282 l 0.987777,3.69147 c 0.01129,0.0226 0.01693,0.0339 0.03951,0.0339 h 0.282222 c 0.02258,0 0.03387,-0.0113 0.03951,-0.0339 0.174978,-0.6096 0.869244,-3.03107 0.953911,-3.46005 h 0.0056 c 0.09596,0.41769 0.694266,2.80529 0.857955,3.46569 0.01129,0.0226 0.01693,0.0282 0.04516,0.0282 h 0.29351 c 0.02822,0 0.03387,-0.006 0.03951,-0.0282 l 1.004711,-3.69711 c 0.0056,-0.0169 0,-0.0282 -0.02258,-0.0282 h -0.220133 c -0.01693,0 -0.02822,0.006 -0.03387,0.0226 -0.603955,2.35937 -0.818444,3.15524 -0.90311,3.46568 h -0.0056 c -0.270933,-1.12324 -0.581377,-2.30857 -0.869243,-3.46004 z"
           id="path2673"
           style="stroke-width:0.481" />
        <path
           d="m 85.257736,120.34162 c -0.02258,0 -0.02822,0.006 -0.02258,0.0339 0.01693,0.12983 0.02822,0.4572 0.02822,0.68862 v 1.95298 c 0,0.0169 0.0056,0.0282 0.02822,0.0282 h 0.220133 c 0.01693,0 0.02258,-0.006 0.02258,-0.0282 l 0.0056,-1.92475 c 0.158045,-0.28222 0.530578,-0.51929 0.908755,-0.51929 0.02258,0 0.02822,-0.006 0.02822,-0.0282 v -0.23143 c 0,-0.0226 -0.0056,-0.0226 -0.02822,-0.0226 -0.344311,0 -0.716844,0.22013 -0.920044,0.51364 -0.0056,-0.11289 -0.01693,-0.36689 -0.03387,-0.43462 -0.01129,-0.0169 -0.01129,-0.0282 -0.03951,-0.0282 z"
           id="path2675"
           style="stroke-width:0.481" />
        <path
           d="m 86.917187,123.01144 c 0,0.0282 0.01129,0.0339 0.03951,0.0339 h 0.2032 c 0.02258,0 0.02822,-0.006 0.02822,-0.0282 v -2.64724 c 0,-0.0226 -0.01129,-0.0282 -0.02822,-0.0282 h -0.214489 c -0.01693,0 -0.02822,0.0113 -0.02822,0.0339 z m 0.135466,-3.36973 c 0.112889,0 0.186267,-0.0847 0.186267,-0.18627 0,-0.11289 -0.06773,-0.19756 -0.186267,-0.19756 -0.107244,0 -0.180622,0.0847 -0.180622,0.19756 0,0.10724 0.06209,0.18627 0.180622,0.18627 z"
           id="path2677"
           style="stroke-width:0.481" />
        <path
           d="m 89.141083,122.80824 c 0,-0.0226 -0.01129,-0.0226 -0.02822,-0.0169 -0.118533,0.0508 -0.220133,0.0621 -0.310444,0.0621 -0.265289,0 -0.378178,-0.16933 -0.378178,-0.43462 v -1.8288 h 0.643467 c 0.02258,-0.006 0.03387,-0.0113 0.03387,-0.0339 v -0.18063 c 0,-0.0226 -0.01129,-0.0339 -0.03387,-0.0339 h -0.637822 c 0,-0.27658 0.01129,-0.60396 0.03951,-0.8128 0,-0.0113 -0.01693,-0.0169 -0.03387,-0.0113 l -0.208844,0.0395 c -0.01129,0.006 -0.01693,0.0169 -0.02258,0.0339 -0.02258,0.11288 -0.04515,0.53057 -0.04515,0.75071 h -0.417689 c -0.02822,0 -0.03387,0.0113 -0.03387,0.0339 v 0.17498 c 0,0.0226 0.0056,0.0339 0.03387,0.0395 h 0.417689 v 1.82316 c 0,0.51928 0.220133,0.68862 0.581377,0.68862 0.118533,0 0.265289,-0.0226 0.378178,-0.0847 0.02258,-0.0113 0.02258,-0.0226 0.02258,-0.0395 z"
           id="path2679"
           style="stroke-width:0.481" />
        <path
           d="m 90.981171,121.65113 c 0.220133,0 0.49671,-0.006 0.581377,-0.0169 0.02258,0 0.03951,-0.0169 0.03951,-0.0339 0.01129,-0.0452 0.01693,-0.11289 0.01693,-0.23707 0,-0.42898 -0.265288,-1.07244 -1.044221,-1.07244 -0.716844,0 -1.174044,0.62653 -1.174044,1.4224 0,0.68297 0.344311,1.38853 1.264355,1.38853 0.333022,0 0.581377,-0.0734 0.750711,-0.16934 0.01693,-0.006 0.02258,-0.0169 0.02258,-0.0395 v -0.18626 c 0,-0.0226 -0.01129,-0.0282 -0.02822,-0.0169 -0.220133,0.11854 -0.462844,0.15805 -0.705555,0.15805 -0.699911,0 -1.061155,-0.51365 -1.032932,-1.19662 z m -1.298222,-0.22014 c 0.06209,-0.46849 0.344311,-0.90311 0.886177,-0.90311 0.637822,0 0.784578,0.57009 0.784578,0.81845 0,0.0169 0,0.0564 -0.0056,0.0734 -0.01693,0.006 -0.07338,0.0113 -0.417688,0.0113 z"
           id="path2681"
           style="stroke-width:0.481" />
        <path
           d="m 92.245515,120.34162 c -0.02258,0 -0.02822,0.006 -0.02258,0.0339 0.01693,0.12983 0.02822,0.4572 0.02822,0.68862 v 1.95298 c 0,0.0169 0.0056,0.0282 0.02822,0.0282 h 0.220133 c 0.01693,0 0.02258,-0.006 0.02258,-0.0282 l 0.0056,-1.92475 c 0.158045,-0.28222 0.530578,-0.51929 0.908755,-0.51929 0.02258,0 0.02822,-0.006 0.02822,-0.0282 v -0.23143 c 0,-0.0226 -0.0056,-0.0226 -0.02822,-0.0226 -0.344311,0 -0.716844,0.22013 -0.920044,0.51364 -0.0056,-0.11289 -0.01693,-0.36689 -0.03387,-0.43462 -0.01129,-0.0169 -0.01129,-0.0282 -0.03951,-0.0282 z"
           id="path2683"
           style="stroke-width:0.481" />
        <path
           d="m 95.93132,123.10175 c 0.790222,0 1.196622,-0.45156 1.196622,-1.01036 0,-0.40075 -0.208845,-0.73942 -0.869244,-1.03293 l -0.254,-0.10724 c -0.558799,-0.24271 -0.722488,-0.48543 -0.722488,-0.79587 0,-0.26529 0.158044,-0.67169 0.846666,-0.67169 0.310444,0 0.620888,0.0621 0.807155,0.19191 0.01693,0.0113 0.03387,0 0.03387,-0.0226 v -0.21448 c 0,-0.0282 -0.0056,-0.0339 -0.02258,-0.0452 -0.1524,-0.096 -0.445911,-0.15804 -0.807155,-0.15804 -0.671689,0 -1.123244,0.37253 -1.123244,0.94826 0,0.33867 0.146756,0.69427 0.841022,0.99907 l 0.231422,0.0959 c 0.59831,0.27094 0.761999,0.508 0.761999,0.83538 0,0.42898 -0.293511,0.73378 -0.914399,0.73378 -0.287867,0 -0.637822,-0.0677 -0.925688,-0.27658 -0.01693,-0.0113 -0.03387,0 -0.03387,0.0169 v 0.23707 c 0,0.0226 0.0056,0.0395 0.02258,0.0508 0.220133,0.14111 0.558799,0.22578 0.931332,0.22578 z"
           id="path2685"
           style="stroke-width:0.481" />
        <path
           d="m 99.222015,121.65113 c 0.220134,0 0.496711,-0.006 0.581378,-0.0169 0.02258,0 0.03951,-0.0169 0.03951,-0.0339 0.01129,-0.0452 0.01693,-0.11289 0.01693,-0.23707 0,-0.42898 -0.265289,-1.07244 -1.044221,-1.07244 -0.716844,0 -1.174044,0.62653 -1.174044,1.4224 0,0.68297 0.344311,1.38853 1.264355,1.38853 0.333022,0 0.581377,-0.0734 0.75071,-0.16934 0.01693,-0.006 0.02258,-0.0169 0.02258,-0.0395 v -0.18626 c 0,-0.0226 -0.01129,-0.0282 -0.02822,-0.0169 -0.220133,0.11854 -0.462844,0.15805 -0.705555,0.15805 -0.699911,0 -1.061155,-0.51365 -1.032933,-1.19662 z m -1.298221,-0.22014 c 0.06209,-0.46849 0.344311,-0.90311 0.886177,-0.90311 0.637822,0 0.784577,0.57009 0.784577,0.81845 0,0.0169 0,0.0564 -0.0056,0.0734 -0.01693,0.006 -0.07338,0.0113 -0.417689,0.0113 z"
           id="path2687"
           style="stroke-width:0.481" />
        <path
           d="m 100.48636,120.34162 c -0.0226,0 -0.0282,0.006 -0.0226,0.0339 0.0169,0.12983 0.0282,0.4572 0.0282,0.68862 v 1.95298 c 0,0.0169 0.006,0.0282 0.0282,0.0282 h 0.22013 c 0.0169,0 0.0226,-0.006 0.0226,-0.0282 l 0.006,-1.92475 c 0.15805,-0.28222 0.53058,-0.51929 0.90876,-0.51929 0.0226,0 0.0282,-0.006 0.0282,-0.0282 v -0.23143 c 0,-0.0226 -0.006,-0.0226 -0.0282,-0.0226 -0.34431,0 -0.71685,0.22013 -0.92005,0.51364 -0.006,-0.11289 -0.0169,-0.36689 -0.0339,-0.43462 -0.0113,-0.0169 -0.0113,-0.0282 -0.0395,-0.0282 z"
           id="path2689"
           style="stroke-width:0.481" />
        <path
           d="m 103.30292,123.0453 c 0.0226,0 0.0282,-0.006 0.0395,-0.0282 0.0621,-0.15804 0.88618,-2.34244 0.99907,-2.6416 0.006,-0.0226 -0.006,-0.0339 -0.0226,-0.0339 h -0.21449 c -0.0169,0 -0.0226,0.006 -0.0339,0.0282 -0.56444,1.55786 -0.8128,2.21826 -0.89182,2.4384 h -0.006 c -0.0734,-0.22014 -0.32738,-0.90311 -0.86925,-2.4384 -0.006,-0.0226 -0.0169,-0.0282 -0.0339,-0.0282 h -0.23143 c -0.0282,0 -0.0282,0.0169 -0.0226,0.0339 0.079,0.20885 0.9144,2.4892 0.97084,2.64725 0.006,0.0113 0.0169,0.0226 0.0395,0.0226 z"
           id="path2691"
           style="stroke-width:0.481" />
        <path
           d="m 104.87206,123.01144 c 0,0.0282 0.0113,0.0339 0.0395,0.0339 h 0.2032 c 0.0226,0 0.0282,-0.006 0.0282,-0.0282 v -2.64724 c 0,-0.0226 -0.0113,-0.0282 -0.0282,-0.0282 h -0.21449 c -0.0169,0 -0.0282,0.0113 -0.0282,0.0339 z m 0.13547,-3.36973 c 0.11289,0 0.18627,-0.0847 0.18627,-0.18627 0,-0.11289 -0.0677,-0.19756 -0.18627,-0.19756 -0.10725,0 -0.18062,0.0847 -0.18062,0.19756 0,0.10724 0.0621,0.18627 0.18062,0.18627 z"
           id="path2693"
           style="stroke-width:0.481" />
        <path
           d="m 107.75637,122.78001 c 0,-0.0169 -0.006,-0.0226 -0.0282,-0.0169 -0.16368,0.0621 -0.34431,0.0847 -0.55879,0.0847 -0.61525,0 -1.10067,-0.41205 -1.10067,-1.15711 0,-0.68298 0.4572,-1.15711 1.10631,-1.15711 0.24836,0 0.38947,0.0282 0.55315,0.096 0.0169,0.006 0.0282,0.006 0.0282,-0.0113 l 0.006,-0.20884 c 0,-0.0226 -0.006,-0.0339 -0.0282,-0.0452 -0.0847,-0.0395 -0.24836,-0.0734 -0.53622,-0.0734 -0.84102,0 -1.40547,0.6096 -1.40547,1.41111 0,0.72248 0.41769,1.39982 1.34338,1.39982 0.19755,0 0.41204,-0.0169 0.60395,-0.0903 0.0169,-0.006 0.0169,-0.0169 0.0169,-0.0395 z"
           id="path2695"
           style="stroke-width:0.481" />
        <path
           d="m 109.69804,121.65113 c 0.22013,0 0.49671,-0.006 0.58137,-0.0169 0.0226,0 0.0395,-0.0169 0.0395,-0.0339 0.0113,-0.0452 0.0169,-0.11289 0.0169,-0.23707 0,-0.42898 -0.26529,-1.07244 -1.04422,-1.07244 -0.71685,0 -1.17405,0.62653 -1.17405,1.4224 0,0.68297 0.34431,1.38853 1.26436,1.38853 0.33302,0 0.58137,-0.0734 0.75071,-0.16934 0.0169,-0.006 0.0226,-0.0169 0.0226,-0.0395 v -0.18626 c 0,-0.0226 -0.0113,-0.0282 -0.0282,-0.0169 -0.22013,0.11854 -0.46284,0.15805 -0.70555,0.15805 -0.69991,0 -1.06116,-0.51365 -1.03293,-1.19662 z m -1.29823,-0.22014 c 0.0621,-0.46849 0.34432,-0.90311 0.88618,-0.90311 0.63782,0 0.78458,0.57009 0.78458,0.81845 0,0.0169 0,0.0564 -0.006,0.0734 -0.0169,0.006 -0.0734,0.0113 -0.41768,0.0113 z"
           id="path2697"
           style="stroke-width:0.481" />
      </g>
    </g>
    <text
       xml:space="preserve"
       style="font-style:normal;font-variant:normal;font-weight:300;font-stretch:normal;font-size:2.75899px;font-family:'Adobe Clean';-inkscape-font-specification:'Adobe Clean, Light';font-variant-ligatures:normal;font-variant-caps:normal;font-variant-numeric:normal;font-variant-east-asian:normal;fill:#000000;stroke:#000000;stroke-width:0.101;stroke-dasharray:none"
       x="26.829084"
       y="84.356316"
       id="text3723"
       transform="scale(1.0002645,0.99973552)"><tspan
         sodipodi:role="line"
         id="tspan3721"
         style="font-style:normal;font-variant:normal;font-weight:300;font-stretch:normal;font-size:2.75899px;font-family:'Adobe Clean';-inkscape-font-specification:'Adobe Clean, Light';font-variant-ligatures:normal;font-variant-caps:normal;font-variant-numeric:normal;font-variant-east-asian:normal;stroke-width:0.101;stroke-dasharray:none"
         x="26.829084"
         y="84.356316">- read blobs</tspan><tspan
         sodipodi:role="line"
         style="font-style:normal;font-variant:normal;font-weight:300;font-stretch:normal;font-size:2.75899px;font-family:'Adobe Clean';-inkscape-font-specification:'Adobe Clean, Light';font-variant-ligatures:normal;font-variant-caps:normal;font-variant-numeric:normal;font-variant-east-asian:normal;stroke-width:0.101;stroke-dasharray:none"
         x="26.829084"
         y="87.805054"
         id="tspan3725">- read nodestates</tspan><tspan
         sodipodi:role="line"
         style="font-style:normal;font-variant:normal;font-weight:300;font-stretch:normal;font-size:2.75899px;font-family:'Adobe Clean';-inkscape-font-specification:'Adobe Clean, Light';font-variant-ligatures:normal;font-variant-caps:normal;font-variant-numeric:normal;font-variant-east-asian:normal;stroke-width:0.101;stroke-dasharray:none"
         x="26.829084"
         y="91.253792"
         id="tspan3727">- read journal</tspan></text>
    <text
       xml:space="preserve"
       style="font-style:normal;font-variant:normal;font-weight:300;font-stretch:normal;font-size:2.75899px;font-family:'Adobe Clean';-inkscape-font-specification:'Adobe Clean, Light';font-variant-ligatures:normal;font-variant-caps:normal;font-variant-numeric:normal;font-variant-east-asian:normal;display:inline;fill:#000000;stroke:#000000;stroke-width:0.101;stroke-dasharray:none"
       x="63.48333"
       y="84.356316"
       id="text3723-8"
       transform="scale(1.0002645,0.99973552)"><tspan
         sodipodi:role="line"
         id="tspan3721-1"
         style="font-style:normal;font-variant:normal;font-weight:300;font-stretch:normal;font-size:2.75899px;font-family:'Adobe Clean';-inkscape-font-specification:'Adobe Clean, Light';font-variant-ligatures:normal;font-variant-caps:normal;font-variant-numeric:normal;font-variant-east-asian:normal;stroke-width:0.101;stroke-dasharray:none"
         x="63.48333"
         y="84.356316">- write blobs</tspan><tspan
         sodipodi:role="line"
         style="font-style:normal;font-variant:normal;font-weight:300;font-stretch:normal;font-size:2.75899px;font-family:'Adobe Clean';-inkscape-font-specification:'Adobe Clean, Light';font-variant-ligatures:normal;font-variant-caps:normal;font-variant-numeric:normal;font-variant-east-asian:normal;stroke-width:0.101;stroke-dasharray:none"
         x="63.48333"
         y="87.805054"
         id="tspan3725-1">- write nodestates</tspan><tspan
         sodipodi:role="line"
         style="font-style:normal;font-variant:normal;font-weight:300;font-stretch:normal;font-size:2.75899px;font-family:'Adobe Clean';-inkscape-font-specification:'Adobe Clean, Light';font-variant-ligatures:normal;font-variant-caps:normal;font-variant-numeric:normal;font-variant-east-asian:normal;stroke-width:0.101;stroke-dasharray:none"
         x="63.48333"
         y="91.253792"
         id="tspan3727-5">- write journal</tspan></text>
    <g
       id="g5081"
       transform="translate(-7.1125534)">
      <rect
         style="display:inline;fill:#fff6d5;stroke:#000000;stroke-width:0.209923"
         id="rect163-8-1-8-9-8-7"
         width="46.810989"
         height="67.348709"
         x="106.56635"
         y="64.777893"
         rx="6.0375476"
         ry="5.975615" />
      <rect
         style="display:inline;fill:#ffeeaa;stroke:#000000;stroke-width:0.211002"
         id="rect269-1-4-6-5-4-7"
         width="39.632935"
         height="15.981905"
         x="108.66334"
         y="67.98407"
         rx="6.0374093"
         ry="6.0374088" />
      <rect
         style="display:inline;fill:#d7f4ee;stroke:#000000;stroke-width:0.209923"
         id="rect163-8-1-8-9-8-1-4"
         width="34.275364"
         height="36.827541"
         x="110.35508"
         y="86.716682"
         rx="6.0375476"
         ry="5.975615" />
      <rect
         style="display:inline;fill:#d7f4ee;stroke:#000000;stroke-width:0.209923"
         id="rect163-8-1-8-9-8-1"
         width="34.275364"
         height="36.827541"
         x="112.39544"
         y="88.666496"
         rx="6.0375476"
         ry="5.975615" />
      <rect
         style="display:inline;fill:#d7f4ee;stroke:#000000;stroke-width:0.209923"
         id="rect163-8-1-8-9-8"
         width="34.275364"
         height="36.827541"
         x="114.73994"
         y="90.411697"
         rx="6.0375476"
         ry="5.975615" />
      <rect
         style="display:inline;fill:#aaeeff;stroke:#000000;stroke-width:0.211002"
         id="rect269-1-4-6-5-4"
         width="27.280502"
         height="7.1623063"
         x="118.23736"
         y="93.724106"
         rx="6.0374093"
         ry="6.0374098" />
      <rect
         style="display:inline;fill:#ffffff;fill-opacity:1;stroke:#000000;stroke-width:0.20745"
         id="rect1253-1-8-5-9-12"
         width="25.925219"
         height="21.961081"
         x="118.915"
         y="103.05476" />
      <text
         xml:space="preserve"
         style="font-style:normal;font-variant:normal;font-weight:300;font-stretch:normal;font-size:2.54547px;font-family:'Adobe Clean';-inkscape-font-specification:'Adobe Clean, Light';font-variant-ligatures:normal;font-variant-caps:normal;font-variant-numeric:normal;font-variant-east-asian:normal;display:inline;fill:#000000;stroke:#000000;stroke-width:0.101;stroke-dasharray:none"
         x="121.80016"
         y="111.73803"
         id="text3723-4"
         transform="scale(0.99981034,1.0001897)"><tspan
           sodipodi:role="line"
           style="font-style:normal;font-variant:normal;font-weight:300;font-stretch:normal;font-size:2.54547px;font-family:'Adobe Clean';-inkscape-font-specification:'Adobe Clean, Light';font-variant-ligatures:normal;font-variant-caps:normal;font-variant-numeric:normal;font-variant-east-asian:normal;stroke-width:0.101;stroke-dasharray:none"
           x="121.80016"
           y="111.73803"
           id="tspan3727-55">uses reader and</tspan><tspan
           sodipodi:role="line"
           style="font-style:normal;font-variant:normal;font-weight:300;font-stretch:normal;font-size:2.54547px;font-family:'Adobe Clean';-inkscape-font-specification:'Adobe Clean, Light';font-variant-ligatures:normal;font-variant-caps:normal;font-variant-numeric:normal;font-variant-east-asian:normal;stroke-width:0.101;stroke-dasharray:none"
           x="121.80016"
           y="114.91987"
           id="tspan4765">writer services via</tspan><tspan
           sodipodi:role="line"
           style="font-style:normal;font-variant:normal;font-weight:300;font-stretch:normal;font-size:2.54547px;font-family:'Adobe Clean';-inkscape-font-specification:'Adobe Clean, Light';font-variant-ligatures:normal;font-variant-caps:normal;font-variant-numeric:normal;font-variant-east-asian:normal;stroke-width:0.101;stroke-dasharray:none"
           x="121.80016"
           y="118.10171"
           id="tspan4767">communication hub</tspan></text>
      <text
         xml:space="preserve"
         style="font-style:normal;font-variant:normal;font-weight:normal;font-stretch:normal;font-size:3.05455px;font-family:'Adobe Clean';-inkscape-font-specification:'Adobe Clean, Normal';font-variant-ligatures:normal;font-variant-caps:normal;font-variant-numeric:normal;font-variant-east-asian:normal;fill:#000000;stroke:#000000;stroke-width:0.101;stroke-dasharray:none"
         x="123.17702"
         y="98.366592"
         id="text4636"
         transform="scale(0.99981034,1.0001897)"><tspan
           sodipodi:role="line"
           id="tspan4634"
           style="font-style:normal;font-variant:normal;font-weight:normal;font-stretch:normal;font-size:3.05455px;font-family:'Adobe Clean';-inkscape-font-specification:'Adobe Clean, Normal';font-variant-ligatures:normal;font-variant-caps:normal;font-variant-numeric:normal;font-variant-east-asian:normal;stroke-width:0.101"
           x="123.17702"
           y="98.366592">Oak Nodestore</tspan></text>
      <text
         xml:space="preserve"
         style="font-style:normal;font-variant:normal;font-weight:normal;font-stretch:normal;font-size:3.05455px;font-family:'Adobe Clean';-inkscape-font-specification:'Adobe Clean, Normal';font-variant-ligatures:normal;font-variant-caps:normal;font-variant-numeric:normal;font-variant-east-asian:normal;display:inline;fill:#000000;stroke:#000000;stroke-width:0.101;stroke-dasharray:none"
         x="124.68149"
         y="76.308693"
         id="text4636-9"
         transform="scale(0.99981034,1.0001897)"><tspan
           sodipodi:role="line"
           id="tspan4634-5"
           style="font-style:normal;font-variant:normal;font-weight:normal;font-stretch:normal;font-size:3.05455px;font-family:'Adobe Clean';-inkscape-font-specification:'Adobe Clean, Normal';font-variant-ligatures:normal;font-variant-caps:normal;font-variant-numeric:normal;font-variant-east-asian:normal;stroke-width:0.101"
           x="124.68149"
           y="76.308693">Tenant 1</tspan></text>
    </g>
    <g
       id="g5064"
       transform="translate(-9.9575747)">
      <rect
         style="display:inline;fill:#fff6d5;stroke:#000000;stroke-width:0.209923"
         id="rect163-8-1-8-9-8-7-7"
         width="46.810989"
         height="67.348709"
         x="159.03151"
         y="64.777893"
         rx="6.0375476"
         ry="5.975615" />
      <rect
         style="display:inline;fill:#ffeeaa;stroke:#000000;stroke-width:0.211002"
         id="rect269-1-4-6-5-4-7-2"
         width="39.632935"
         height="15.981905"
         x="161.12849"
         y="67.98407"
         rx="6.0374093"
         ry="6.0374088" />
      <rect
         style="display:inline;fill:#d7f4ee;stroke:#000000;stroke-width:0.209923"
         id="rect163-8-1-8-9-8-1-4-4"
         width="34.275364"
         height="36.827541"
         x="162.82024"
         y="86.716682"
         rx="6.0375476"
         ry="5.975615" />
      <rect
         style="display:inline;fill:#d7f4ee;stroke:#000000;stroke-width:0.209923"
         id="rect163-8-1-8-9-8-1-1"
         width="34.275364"
         height="36.827541"
         x="164.8606"
         y="88.666496"
         rx="6.0375476"
         ry="5.975615" />
      <rect
         style="display:inline;fill:#d7f4ee;stroke:#000000;stroke-width:0.209923"
         id="rect163-8-1-8-9-8-8"
         width="34.275364"
         height="36.827541"
         x="167.20509"
         y="90.411697"
         rx="6.0375476"
         ry="5.975615" />
      <rect
         style="display:inline;fill:#aaeeff;stroke:#000000;stroke-width:0.211002"
         id="rect269-1-4-6-5-4-2"
         width="27.280502"
         height="7.1623063"
         x="170.70251"
         y="93.724106"
         rx="6.0374093"
         ry="6.0374098" />
      <rect
         style="display:inline;fill:#ffffff;fill-opacity:1;stroke:#000000;stroke-width:0.20745"
         id="rect1253-1-8-5-9-12-6"
         width="25.925219"
         height="21.961081"
         x="171.38016"
         y="103.05476" />
      <text
         xml:space="preserve"
         style="font-style:normal;font-variant:normal;font-weight:300;font-stretch:normal;font-size:2.54547px;font-family:'Adobe Clean';-inkscape-font-specification:'Adobe Clean, Light';font-variant-ligatures:normal;font-variant-caps:normal;font-variant-numeric:normal;font-variant-east-asian:normal;display:inline;fill:#000000;stroke:#000000;stroke-width:0.101;stroke-dasharray:none"
         x="174.27525"
         y="111.73803"
         id="text3723-4-0"
         transform="scale(0.99981034,1.0001897)"><tspan
           sodipodi:role="line"
           style="font-style:normal;font-variant:normal;font-weight:300;font-stretch:normal;font-size:2.54547px;font-family:'Adobe Clean';-inkscape-font-specification:'Adobe Clean, Light';font-variant-ligatures:normal;font-variant-caps:normal;font-variant-numeric:normal;font-variant-east-asian:normal;stroke-width:0.101;stroke-dasharray:none"
           x="174.27525"
           y="111.73803"
           id="tspan3727-55-3">uses reader and</tspan><tspan
           sodipodi:role="line"
           style="font-style:normal;font-variant:normal;font-weight:300;font-stretch:normal;font-size:2.54547px;font-family:'Adobe Clean';-inkscape-font-specification:'Adobe Clean, Light';font-variant-ligatures:normal;font-variant-caps:normal;font-variant-numeric:normal;font-variant-east-asian:normal;stroke-width:0.101;stroke-dasharray:none"
           x="174.27525"
           y="114.91987"
           id="tspan4765-9">writer services via</tspan><tspan
           sodipodi:role="line"
           style="font-style:normal;font-variant:normal;font-weight:300;font-stretch:normal;font-size:2.54547px;font-family:'Adobe Clean';-inkscape-font-specification:'Adobe Clean, Light';font-variant-ligatures:normal;font-variant-caps:normal;font-variant-numeric:normal;font-variant-east-asian:normal;stroke-width:0.101;stroke-dasharray:none"
           x="174.27525"
           y="118.10171"
           id="tspan4767-4">communication hub</tspan></text>
      <text
         xml:space="preserve"
         style="font-style:normal;font-variant:normal;font-weight:normal;font-stretch:normal;font-size:3.05455px;font-family:'Adobe Clean';-inkscape-font-specification:'Adobe Clean, Normal';font-variant-ligatures:normal;font-variant-caps:normal;font-variant-numeric:normal;font-variant-east-asian:normal;display:inline;fill:#000000;stroke:#000000;stroke-width:0.101;stroke-dasharray:none"
         x="175.65211"
         y="98.366592"
         id="text4636-96"
         transform="scale(0.99981034,1.0001897)"><tspan
           sodipodi:role="line"
           id="tspan4634-51"
           style="font-style:normal;font-variant:normal;font-weight:normal;font-stretch:normal;font-size:3.05455px;font-family:'Adobe Clean';-inkscape-font-specification:'Adobe Clean, Normal';font-variant-ligatures:normal;font-variant-caps:normal;font-variant-numeric:normal;font-variant-east-asian:normal;stroke-width:0.101"
           x="175.65211"
           y="98.366592">Oak Nodestore</tspan></text>
      <text
         xml:space="preserve"
         style="font-style:normal;font-variant:normal;font-weight:normal;font-stretch:normal;font-size:3.05455px;font-family:'Adobe Clean';-inkscape-font-specification:'Adobe Clean, Normal';font-variant-ligatures:normal;font-variant-caps:normal;font-variant-numeric:normal;font-variant-east-asian:normal;display:inline;fill:#000000;stroke:#000000;stroke-width:0.101;stroke-dasharray:none"
         x="177.15659"
         y="76.308693"
         id="text4636-9-3"
         transform="scale(0.99981034,1.0001897)"><tspan
           sodipodi:role="line"
           id="tspan4634-5-2"
           style="font-style:normal;font-variant:normal;font-weight:normal;font-stretch:normal;font-size:3.05455px;font-family:'Adobe Clean';-inkscape-font-specification:'Adobe Clean, Normal';font-variant-ligatures:normal;font-variant-caps:normal;font-variant-numeric:normal;font-variant-east-asian:normal;stroke-width:0.101"
           x="177.15659"
           y="76.308693">Tenant 2</tspan></text>
    </g>
  </g>
</svg>
